<svg xmlns="http://www.w3.org/2000/svg" viewBox="0 0 158.99 153.77"  fill="none" xmlns:v="https://vecta.io/nano"><g stroke-miterlimit="10" stroke-width="3"><path d="M17.5 20.03v-16s.85-2.53 4.79-2.53h91.79s2.25.28 2.25 3.38v16.28m-22.27-.27s-5.92-7.88-6.77-11.27H17.5" stroke="#f5a31e"/><g stroke="#fff"><path d="M131.28 129.37v10.9c0 6.627-5.373 12-12 12H13.5c-6.627 0-12-5.373-12-12V33.5c0-6.627 5.373-12 12-12h105.78c6.627 0 12 5.373 12 12h0v60.59"/><path d="M114.14 21.5h22.36c6.627 0 12 5.373 12 12h0v60.59H94.24s-19.14.37-19.14 17.27c0 0 .37 15.39 14.64 17.27l58.81.75v10.9c0 6.627-5.373 12-12 12h-19.79m32.6-22.91s8.14-1.13 8.14-8.48v-20.43s-1-6.57-9-6.37"/></g></g><circle cx="93.91" cy="111.68" r="9.43" stroke-width="3" stroke="#f5a31e"/></svg>