<svg id="Layer_1" data-name="Layer 1" xmlns="http://www.w3.org/2000/svg" viewBox="0 0 157.08 110.23"><defs><style>.cls-1,.cls-2{fill:none;stroke-linecap:round;stroke-linejoin:round;stroke-width:4px;}.cls-1{stroke:#f3a31e;}.cls-2{stroke:#fff;}</style></defs><title>creditcards_hover</title><path class="cls-1" d="M103.17,153.07H35.58a12.09,12.09,0,0,1-12-12V58.89a12.08,12.08,0,0,1,12-12h129a12.09,12.09,0,0,1,12.05,12V141a12.1,12.1,0,0,1-12.05,12h-61.4Z" transform="translate(-21.54 -44.85)"/><line class="cls-1" x1="19.01" y1="89.73" x2="32.63" y2="89.73"/><line class="cls-1" x1="49.2" y1="89.73" x2="66.14" y2="89.73"/><polygon class="cls-1" points="155.08 27.28 155.08 46.89 2 46.89 2 27.28 155.08 27.28 155.08 27.28"/><rect class="cls-2" x="97.44" y="65.89" width="43.92" height="28.72"/></svg>