<svg xmlns="http://www.w3.org/2000/svg" viewBox="0 0 116.26 144.21"  fill="none" stroke-miterlimit="10" stroke-width="4" xmlns:v="https://vecta.io/nano"><path d="M87.6 86.39l.8 44.67c-.022 6.143-4.997 11.118-11.14 11.14H13.14c-6.13-.016-11.102-4.97-11.14-11.1v-118C2.038 6.97 7.01 2.016 13.14 2h62.12c4.81 0 12.42 1.59 12.11 10.92l-.2 5.87m-83.93-.44h84.09l.07 29.17m-49.22 80h14M2.82 114.24h84.09" stroke="#f4a31e"/><g stroke="#fff"><path d="M108.41 85.74H64.57a4.26 4.26 0 0 1-4.24-4.25V52.56a4.26 4.26 0 0 1 4.24-4.24h45.44a4.26 4.26 0 0 1 4.25 4.24v28.93a4.27 4.27 0 0 1-4.25 4.25h-1.93"/><path d="M66.32 79.23h4.8m5.84 0h5.97m31.33-22v6.9H60.33v-6.9h53.93z"/></g></svg>