<svg id="Layer_1" data-name="Layer 1" xmlns="http://www.w3.org/2000/svg" viewBox="0 0 141.49 148.17"><defs><style>.cls-1,.cls-2{fill:none;stroke-linecap:round;stroke-linejoin:round;stroke-width:4px;}.cls-1{stroke:#fff;}.cls-2{stroke:#f3a31e;}</style></defs><title>foreignexchange_hover</title><path class="cls-1" d="M114.66,36.74a65.83,65.83,0,0,1,11.71,3.18A64.88,64.88,0,0,1,137.06,45a65.26,65.26,0,0,1,17.5,15.17A64.6,64.6,0,0,1,161,69.82,63.14,63.14,0,0,1,168.17,92" transform="translate(-30.41 -25.84)"/><path class="cls-1" d="M87.68,163.1a66,66,0,0,1-22.39-8.3A64.17,64.17,0,0,1,55.83,148a65.22,65.22,0,0,1-8-8.33,63.17,63.17,0,0,1-13.61-31.79" transform="translate(-30.41 -25.84)"/><polyline class="cls-1" points="49.99 122.64 59.78 136.57 45.56 146.17"/><polyline class="cls-1" points="91.59 25.52 81.79 11.59 96.01 2"/><path class="cls-2" d="M69.48,32.28c20.48,0,37.07,16.26,37.07,36.3S90,104.88,69.48,104.88,32.41,88.63,32.41,68.58,49,32.28,69.48,32.28Z" transform="translate(-30.41 -25.84)"/><line class="cls-2" x1="102.59" y1="81.16" x2="102.59" y2="88.16"/><line class="cls-2" x1="102.59" y1="122.16" x2="102.59" y2="130.16"/><path class="cls-2" d="M132.86,95c20.46,0,37,16.24,37,36.26s-16.58,36.26-37,36.26-37-16.23-37-36.26S112.41,95,132.86,95Z" transform="translate(-30.41 -25.84)"/><path class="cls-2" d="M144.39,118.35a53.59,53.59,0,0,0-10.28-2.68c-17.86-2-20.15,15.65-1.14,15.59,18.47,0,16.73,17.58-1.17,15.6a52.58,52.58,0,0,1-10.25-2.68" transform="translate(-30.41 -25.84)"/><polyline class="cls-2" points="35.59 45.16 26.65 45.15 42.5 64.09"/><line class="cls-2" x1="24.59" y1="35.16" x2="50.59" y2="35.16"/><line class="cls-2" x1="24.59" y1="26.16" x2="50.59" y2="26.16"/><path class="cls-2" d="M66.25,51.8a9.48,9.48,0,1,1,0,19" transform="translate(-30.41 -25.84)"/></svg>