<svg id="Layer_1" data-name="Layer 1" xmlns="http://www.w3.org/2000/svg" viewBox="0 0 137.09 144.67"><defs><style>.cls-1,.cls-2{fill:none;stroke-linecap:round;stroke-linejoin:round;stroke-width:4px;}.cls-1{stroke:#fff;}.cls-2{stroke:#f3a31e;}</style></defs><title>insurance_hover</title><path class="cls-1" d="M100,88.81v65c0,7.76-6.47,16.57-14.38,16.57h0c-7.92,0-14.39-8.79-14.39-16.57v-5.25" transform="translate(-31.46 -27.66)"/><path class="cls-2" d="M100,41.4c36.75,0,66.54,26.5,66.54,59.17q0,1.58-.09,3.12c-2.5-8.79-11.26-15.3-22.12-15.3s-19.11,7-21.21,16.28C121,95.38,110.65,88.39,99.6,88.39s-20.28,7-22.37,16.28c-2.09-9.29-11.31-16.28-22.37-16.28-9.81,0-18.17,5.51-21.39,13.23,0-.35,0-.7,0-1.05C33.46,67.9,63.25,41.4,100,41.4Z" transform="translate(-31.46 -27.66)"/><line class="cls-2" x1="68.55" y1="2" x2="68.55" y2="13.23"/><path class="cls-2" d="M76.89,101.62v-1.05c0-32.67,10.29-59.17,23-59.17s23,26.5,23,59.17q0,1.58,0,3.12" transform="translate(-31.46 -27.66)"/></svg>